<svg width="221" height="204" viewBox="0 0 221 204" fill="none" xmlns="http://www.w3.org/2000/svg">
<path d="M0.263734 18.4809C0.215993 15.7679 0.904421 13.0107 2.40066 10.5123C6.66225 3.40699 15.8785 1.10414 22.9838 5.36573L47.3577 19.9839L71.2023 4.51723C76.0097 1.39904 82.1725 1.2906 87.0867 4.23772L111.453 18.8561L135.293 3.38943C140.101 0.271233 146.264 0.162787 151.178 3.10991L183.575 22.5467C190.681 26.8083 192.987 36.0245 188.722 43.1299C184.46 50.2352 175.244 52.538 168.139 48.2764L143.769 33.6581L119.932 49.1247C115.125 52.2429 108.962 52.3513 104.048 49.4042L79.6776 34.7859L55.8331 50.2526C51.0295 53.3708 44.8668 53.4792 39.9526 50.5321L7.54721 31.0954C2.94432 28.3339 0.351739 23.4821 0.263734 18.4809Z" fill="#01DCCF"/>
<path d="M28.2637 88.4809C28.216 85.7679 28.9044 83.0107 30.4007 80.5123C34.6622 73.407 43.8785 71.1041 50.9838 75.3657L75.3577 89.9839L99.2023 74.5172C104.01 71.399 110.172 71.2906 115.087 74.2377L139.453 88.8561L163.293 73.3894C168.101 70.2712 174.264 70.1628 179.178 73.1099L211.575 92.5467C218.681 96.8083 220.987 106.024 216.722 113.13C212.46 120.235 203.244 122.538 196.139 118.276L171.769 103.658L147.932 119.125C143.125 122.243 136.962 122.351 132.048 119.404L107.678 104.786L83.8331 120.253C79.0295 123.371 72.8668 123.479 67.9526 120.532L35.5472 101.095C30.9443 98.3339 28.3517 93.4821 28.2637 88.4809Z" fill="#01DCCF"/>
<path d="M29.2637 168.481C29.216 165.768 29.9044 163.011 31.4007 160.512C35.6622 153.407 44.8785 151.104 51.9838 155.366L76.3577 169.984L100.202 154.517C105.01 151.399 111.172 151.291 116.087 154.238L140.453 168.856L164.293 153.389C169.101 150.271 175.264 150.163 180.178 153.11L212.575 172.547C219.681 176.808 221.987 186.024 217.722 193.13C213.46 200.235 204.244 202.538 197.139 198.276L172.769 183.658L148.932 199.125C144.125 202.243 137.962 202.351 133.048 199.404L108.678 184.786L84.8331 200.253C80.0295 203.371 73.8668 203.479 68.9526 200.532L36.5472 181.095C31.9443 178.334 29.3517 173.482 29.2637 168.481Z" fill="#01DCCF"/>
</svg>
