<svg width="60" height="60" viewBox="0 0 60 60" fill="none" xmlns="http://www.w3.org/2000/svg">
<path d="M53.5925 25.1595C53.8151 23.7507 53.954 22.206 53.989 20.4739C53.9756 13.0466 50.4202 10.4186 49.7361 9.18649C50.7436 3.55898 49.5692 0.999211 49.023 0.122929C47.0085 -0.592137 42.014 1.96851 39.2851 3.7711C34.8359 2.46871 25.4334 2.59582 21.9073 4.10819C15.4015 -0.550267 11.9606 0.160036 11.9606 0.160036C11.9606 0.160036 9.73601 4.14906 11.3725 9.9848C9.23193 12.7126 7.63644 14.6411 7.63644 19.7567C7.63644 20.9818 7.71254 22.1395 7.84166 23.2534C9.68511 32.9462 17.3654 37.1277 24.9097 37.8488C23.7744 38.7114 22.4115 40.3439 22.223 42.2355C20.7965 43.1578 17.9271 43.4627 15.6957 42.7611C12.5693 41.7733 11.3725 35.5821 6.69058 36.4653C5.67753 36.6549 5.87886 37.323 6.75615 37.8927C8.18252 38.8179 9.5259 39.9679 10.5614 42.4289C11.3567 44.3184 13.0294 47.6919 18.3179 47.6919C20.4174 47.6919 21.8879 47.4438 21.8879 47.4438C21.8879 47.4438 21.9279 52.2585 21.9279 54.1363C21.9279 56.2973 19.0114 56.904 19.0114 57.9408C19.0114 58.3531 19.9767 58.3922 20.7525 58.3922C22.2855 58.3922 25.4752 57.1152 25.4752 54.8691C25.4752 53.0843 25.5037 47.0865 25.5037 46.0361C25.5037 43.7411 26.7336 43.0104 26.7336 43.0104C26.7336 43.0104 26.8842 55.2616 26.4376 56.9041C25.914 58.8357 24.9654 58.5613 24.9654 59.4209C24.9654 60.7037 28.8001 59.7346 30.072 56.9266C31.056 54.7334 30.6153 42.7191 30.6153 42.7191L31.6412 42.6968C31.6412 42.6968 31.653 48.1992 31.6176 50.713C31.5806 53.3166 31.312 56.6082 32.8584 58.1616C33.8735 59.1833 36.9832 60.9761 36.9832 59.3378C36.9832 58.3883 34.8056 57.6037 34.8056 55.0312V43.181C36.1285 43.181 36.4019 47.0762 36.4019 47.0762L36.8788 54.313C36.8788 54.313 36.5621 56.9538 39.7316 58.0558C40.8504 58.4477 43.244 58.5543 43.3562 57.8965C43.4686 57.2371 40.4741 56.262 40.4456 54.2181C40.4302 52.9733 40.5014 52.2447 40.5014 46.83C40.5014 41.4184 39.7744 39.4165 37.2411 37.8211C44.5875 37.0672 52.2179 33.7863 53.5925 25.1595Z" fill="white"/>
</svg>
