<svg width="60" height="60" viewBox="0 0 60 60" fill="none" xmlns="http://www.w3.org/2000/svg">
<g clip-path="url(#clip0)">
<path d="M59.985 59.7531V59.7506H60V37.7456C60 26.9806 57.6825 18.6881 45.0975 18.6881C39.0475 18.6881 34.9875 22.0081 33.33 25.1556H33.155V19.6931H21.2225V59.7506H33.6475V39.9156C33.6475 34.6931 34.6375 29.6431 41.105 29.6431C47.4775 29.6431 47.5725 35.6031 47.5725 40.2506V59.7531H59.985Z" fill="white"/>
<path d="M0.989998 19.6954H13.43V59.7529H0.989998V19.6954Z" fill="white"/>
<path d="M7.205 0C3.2275 0 0 3.2275 0 7.205C0 11.1825 3.2275 14.4775 7.205 14.4775C11.1825 14.4775 14.41 11.1825 14.41 7.205C14.4075 3.2275 11.18 0 7.205 0V0Z" fill="white"/>
</g>
<defs>
<clipPath id="clip0">
<rect width="60" height="60" fill="white"/>
</clipPath>
</defs>
</svg>
