<svg width="131" height="66" viewBox="0 0 131 66" fill="none" xmlns="http://www.w3.org/2000/svg">
<path d="M33.5288 40.768C33.0168 42.9867 32.5474 45.2053 32.1208 47.424C31.6941 49.6427 31.2034 51.8827 30.6488 54.144C28.5154 51.968 26.3821 49.856 24.2488 47.808C22.1154 45.76 20.0248 43.6053 17.9768 41.344C18.5314 38.4427 19.0008 35.5627 19.3848 32.704C19.8114 29.8453 20.2381 26.9653 20.6648 24.064C23.8221 21.6747 26.9581 19.264 30.0728 16.832C33.2301 14.4 36.2594 11.7547 39.1608 8.896C38.4354 11.328 37.7954 13.8027 37.2408 16.32C36.6861 18.7947 36.1314 21.312 35.5768 23.872C33.6994 25.3653 31.7794 26.7947 29.8168 28.16C27.8968 29.4827 25.9981 30.848 24.1208 32.256C25.6994 33.664 27.2568 35.0933 28.7928 36.544C30.3714 37.952 31.9501 39.36 33.5288 40.768ZM84.1783 39.488C80.1676 45.4613 76.0503 51.584 71.8263 57.856L61.2022 55.36C62.1409 54.1227 63.3569 52.4587 64.8503 50.368C66.3863 48.2347 68.0716 45.8453 69.9062 43.2C71.7836 40.5547 73.7676 37.7173 75.8583 34.688C77.9489 31.6587 80.0396 28.5867 82.1303 25.472C84.2209 22.3147 86.2476 19.2213 88.2103 16.192C90.2156 13.1627 92.0289 10.304 93.6503 7.616C94.0343 7.872 94.6529 8.128 95.5063 8.384C96.4023 8.59733 97.3623 8.78933 98.3863 8.96C99.4529 9.13067 100.498 9.28 101.522 9.408C102.589 9.49333 103.464 9.57867 104.146 9.664C102.866 11.584 101.416 13.76 99.7943 16.192C98.2156 18.5813 96.5516 21.0773 94.8022 23.68C93.0529 26.2827 91.2609 28.9493 89.4263 31.68C87.6343 34.368 85.8849 36.9707 84.1783 39.488ZM116.676 41.344C113.519 43.6907 110.34 46.016 107.14 48.32C103.983 50.624 100.954 53.1627 98.0523 55.936C98.6923 53.4187 99.2469 50.88 99.7163 48.32C100.228 45.76 100.698 43.2 101.124 40.64C103.087 39.1893 105.092 37.7813 107.14 36.416C109.188 35.0507 111.215 33.664 113.22 32.256C111.77 30.976 110.298 29.6747 108.804 28.352C107.354 27.0293 105.903 25.728 104.452 24.448C104.666 21.9733 104.9 19.5413 105.156 17.152C105.455 14.7627 105.732 12.3307 105.988 9.856C108.207 12.16 110.468 14.4213 112.772 16.64C115.076 18.8587 117.38 21.12 119.684 23.424C119.087 26.4533 118.532 29.44 118.02 32.384C117.551 35.328 117.103 38.3147 116.676 41.344Z" fill="#F9FCFC"/>
<path d="M33.7248 56.064C34.8768 50.3893 35.9861 44.8427 37.0528 39.424C37.4368 37.12 37.8634 34.7307 38.3328 32.256C38.8021 29.7387 39.2288 27.264 39.6128 24.832C40.0394 22.3573 40.4234 19.9893 40.7648 17.728C41.1488 15.424 41.4474 13.3333 41.6608 11.456C44.0928 10.688 46.7168 10.1333 49.5328 9.792C52.3488 9.408 55.1434 9.216 57.9168 9.216C59.5808 9.216 60.9461 9.408 62.0128 9.792C63.1221 10.176 63.9754 10.7307 64.5728 11.456C65.2128 12.1387 65.6608 12.9493 65.9168 13.888C66.1728 14.8267 66.3008 15.872 66.3008 17.024C66.3008 18.7307 66.0021 20.416 65.4048 22.08C64.8074 23.7013 63.9968 25.2587 62.9728 26.752C61.9914 28.2027 60.8394 29.5467 59.5168 30.784C58.2368 31.9787 56.8501 32.96 55.3568 33.728C56.1248 35.4347 56.9354 37.312 57.7888 39.36C58.6848 41.3653 59.5168 43.2853 60.2848 45.12C61.1381 47.2533 62.0128 49.3867 62.9088 51.52L52.9888 54.976C52.1354 52.032 51.3674 49.2587 50.6848 46.656C50.3861 45.5893 50.0874 44.5013 49.7888 43.392C49.4901 42.24 49.2128 41.1733 48.9568 40.192C48.7008 39.168 48.4874 38.272 48.3168 37.504C48.1461 36.736 48.0394 36.1387 47.9968 35.712L47.1648 35.968C46.9088 37.3333 46.5888 38.9973 46.2048 40.96C45.8634 42.9227 45.5434 44.8213 45.2448 46.656C44.8608 48.832 44.4768 51.072 44.0928 53.376L33.7248 56.064ZM48.7648 28.288C49.5754 28.2027 50.5568 27.8613 51.7088 27.264C52.9034 26.6667 54.0341 25.9627 55.1008 25.152C56.1674 24.2987 57.0848 23.424 57.8528 22.528C58.6208 21.632 59.0048 20.8427 59.0048 20.16C59.0048 19.6907 58.8554 19.328 58.5568 19.072C58.2581 18.7733 57.8314 18.56 57.2768 18.432C56.7648 18.2613 56.1888 18.1547 55.5488 18.112C54.9088 18.0693 54.2474 18.048 53.5648 18.048C53.0954 18.048 52.6048 18.0693 52.0928 18.112C51.6234 18.112 51.1968 18.112 50.8128 18.112L48.7648 28.288Z" fill="white"/>
</svg>
