<svg width="60" height="60" viewBox="0 0 60 60" fill="none" xmlns="http://www.w3.org/2000/svg">
<g clip-path="url(#clip0)">
<path d="M53.835 17.7825C56.275 16.05 58.3275 13.8875 60 11.3975V11.395C57.7675 12.3725 55.3925 13.0225 52.9125 13.3375C55.4625 11.815 57.41 9.4225 58.325 6.54C55.9475 7.9575 53.3225 8.9575 50.525 9.5175C48.2675 7.1125 45.05 5.625 41.54 5.625C34.73 5.625 29.2475 11.1525 29.2475 17.9275C29.2475 18.9025 29.33 19.84 29.5325 20.7325C19.3075 20.2325 10.2575 15.3325 4.1775 7.865C3.1175 9.7075 2.4925 11.815 2.4925 14.0825C2.4925 18.3425 4.685 22.1175 7.9575 24.305C5.98 24.2675 4.0425 23.6925 2.4 22.79V22.925C2.4 28.9025 6.6625 33.8675 12.255 35.0125C11.2525 35.2875 10.1625 35.4175 9.03 35.4175C8.2425 35.4175 7.4475 35.3725 6.7025 35.2075C8.295 40.0775 12.82 43.66 18.195 43.7775C14.01 47.05 8.695 49.0225 2.9425 49.0225C1.935 49.0225 0.9675 48.9775 0 48.855C5.45 52.3675 11.905 54.375 18.87 54.375C40.5775 54.375 54.725 36.265 53.835 17.7825Z" fill="white"/>
</g>
<defs>
<clipPath id="clip0">
<rect width="60" height="60" fill="white"/>
</clipPath>
</defs>
</svg>
